<svg width="844" height="370" xmlns="http://www.w3.org/2000/svg">
  <g fill-rule="nonzero" fill="currentcolor">
    <path d="M843.48 143.62L700.58.72l-142.9 142.9-.01.01 142.91 142.91 142.91-142.91-.01-.01zM700.58 38.8l52.63 52.63c-17.22-4.63-34.92-7-52.63-7s-35.41 2.37-52.63 7l52.63-52.63zm-46.83 162.83c14.17-7.84 30.18-12.01 46.82-12.01 16.65 0 32.65 4.17 46.82 12.01l-46.82 46.82-46.82-46.82zm113.26-19.6c-20.2-12.87-43.31-19.33-66.43-19.33-23.12 0-46.23 6.47-66.43 19.33l-36.95-36.95c29.82-21.89 65.69-33.71 103.38-33.71s73.56 11.82 103.38 33.71l-36.95 36.95z" fill="#89C967"/>
    <path d="M44.09 184.27c3.59-2.31 8.71-3.46 15.38-3.46 7.94 0 14.77 1.51 20.47 4.52 5.7 3.01 7.08 3.76 16.55 12.21l16.99-19.61c-7.3-8.07-15.22-13.9-23.74-17.49-8.52-3.59-18.81-5.38-30.85-5.38-11.28 0-21.05 1.76-29.31 5.28-8.27 3.53-14.54 8.43-18.84 14.7-4.3 6.28-6.44 13.39-6.44 21.34 0 7.95 1.95 14.48 5.86 19.6 3.91 5.13 9.42 9.2 16.53 12.21 7.11 3.01 16.11 5.61 27.01 7.79 8.84 1.67 15.15 3.43 18.93 5.28 3.78 1.86 5.67 4.26 5.67 7.21 0 3.72-1.76 6.57-5.29 8.55-3.53 1.99-8.81 2.98-15.86 2.98-8.84 0-16.4-1.41-22.68-4.23-6.28-2.82-11.54-6.27-18.2-12.85L.64 264.23c6.54 7.3 14.29 12.72 23.26 16.24 8.97 3.52 20.63 5.29 34.98 5.29 10.25 0 19.44-1.54 27.58-4.61 8.14-3.08 14.51-7.56 19.12-13.45 4.61-5.89 6.92-12.88 6.92-20.95 0-11.15-3.75-19.8-11.24-25.95-7.5-6.15-20.02-10.83-37.58-14.03-9.1-1.66-15.54-3.49-19.32-5.48-3.78-1.98-5.67-4.58-5.67-7.78.02-3.86 1.81-6.93 5.4-9.24zm127.44 1.54c-16.02 0-28.38 4.36-37.1 13.07-8.72 8.71-13.07 21.02-13.07 36.9 0 15.89 4.45 28.19 13.36 36.9 8.9 8.71 21.75 13.07 38.54 13.07 11.27 0 20.79-2.14 28.54-6.44 7.75-4.29 12.97-10.54 15.67-18.74l-26.52-8.46c-1.03 3.46-3.05 6.09-6.06 7.88-3.01 1.8-6.89 2.69-11.63 2.69-5.64 0-10.16-1.41-13.55-4.23-3.4-2.82-5.61-7.24-6.63-13.26h65.54c.64-2.82.96-6.41.96-10.76 0-15.38-4.13-27.32-12.4-35.85-8.26-8.51-20.15-12.77-35.65-12.77zm-18.65 41.71c1.92-12.56 8.07-18.84 18.45-18.84 10.25 0 16.15 6.28 17.68 18.84h-36.13zm143.2-41.71c-7.56 0-14.16 1.7-19.8 5.09-5.64 3.4-10 8.49-13.07 15.28l-.96-18.45h-29.22v96.1h32.67v-50.74c0-7.56 1.6-13.17 4.8-16.82 3.2-3.65 7.37-5.48 12.49-5.48 4.35 0 7.72 1.38 10.09 4.13 2.37 2.76 3.56 7.4 3.56 13.94v54.97h32.67v-64.01c0-10.89-3.01-19.28-9.03-25.18-6.01-5.88-14.08-8.83-24.2-8.83zm83.22 23.83c2.56-1.41 6.15-2.11 10.76-2.11 5.89 0 10.96 1.03 15.19 3.08 4.23 2.05 7.88 5.32 10.96 9.8l16.91-16.53c-4.36-6.02-10.03-10.54-17.01-13.55-6.98-3.01-15.99-4.52-27-4.52-9.99 0-18.48 1.51-25.47 4.52-6.98 3.01-12.2 6.95-15.66 11.82-3.46 4.87-5.19 10.06-5.19 15.57 0 8.07 3.04 14.55 9.13 19.41 6.08 4.87 16.31 8.71 30.66 11.53 6.41 1.28 10.92 2.6 13.55 3.94 2.63 1.35 3.94 2.91 3.94 4.71 0 2.05-1.28 3.69-3.85 4.9-2.56 1.22-6.09 1.83-10.57 1.83-13.45 0-22.61-3.28-29.82-12.15l-15.54 16.96c9.23 11.28 24.86 16.91 46.9 16.91 14.86 0 26.2-2.91 34.02-8.75 7.81-5.83 11.72-13.42 11.72-22.78 0-8.33-3.11-14.9-9.32-19.7-6.22-4.8-16.37-8.42-30.47-10.86-6.53-1.28-11.12-2.6-13.74-3.94-2.63-1.35-3.94-2.98-3.94-4.9 0-2.05 1.28-3.78 3.84-5.19zm169.91 52.86c-3.33 0-5.64-.89-6.92-2.69-1.28-1.79-1.92-4.87-1.92-9.23v-62.85h-32.68v56.69c-.64 4.6-2.11 8.23-4.42 10.87-3.2 3.65-7.5 5.48-12.88 5.48-4.49 0-7.82-1.28-9.99-3.84-2.18-2.56-3.27-6.98-3.27-13.26v-55.93h-32.68v64.2c0 11.66 2.91 20.21 8.75 25.66 5.83 5.45 13.87 8.17 24.12 8.17 15.05 0 25.69-5.74 31.95-17.2 1.15 4.13 2.92 7.47 5.34 9.99 4.61 4.8 12.05 7.21 22.3 7.21 3.59 0 7.24-.45 10.96-1.35 3.72-.9 6.73-2.05 9.03-3.46l2.12-20.18c-3.47 1.14-6.74 1.72-9.81 1.72zM259.08 345.79c0 8.4-5.01 14.08-11.85 14.08-4.45 0-7.62-1.84-9.51-5.06v4.4h-3.45v-39.5h3.67v16.86c1.89-3.12 5.01-4.9 9.29-4.9 6.95-.01 11.85 5.66 11.85 14.12zm-3.79 0c0-6.57-3.34-11.07-8.4-11.07-5.29 0-9.12 4.06-9.12 11.07 0 6.95 3.89 10.96 9.12 10.96 5.06 0 8.4-4.51 8.4-10.96zm30.49-13.46l-10.96 30.93c-1.56 4.39-2.89 6.62-7.57 6.62-1.17 0-2.5-.17-3.62-.45l.61-2.89c1.11.22 2 .33 2.78.33 2.28 0 3.39-1 4.67-4.67l.5-1.5-10.07-28.37h3.89l3.34 9.79c1.5 4.45 3.34 9.85 4.62 13.85 1.39-4.01 3.17-9.4 4.73-13.96l3.34-9.68h3.74zM355.98 331.95v26.51h-6.19v-2.81c-1.4 2.28-3.99 3.6-7.77 3.6-6.28 0-9.39-3.25-9.39-8.43v-18.88h6.76v17.08c0 2.77 1.49 4.39 4.39 4.39 3.38 0 5.44-1.93 5.44-5.49v-15.98h6.76v.01zm43.9 7.98v18.52h-6.76v-16.51c0-3.16-1.27-5.09-4.21-5.09s-4.65 2.19-4.65 5.27v16.33h-6.76v-16.51c0-3.38-1.4-5.09-4.21-5.09-2.98 0-4.65 2.19-4.65 5.27v16.33h-6.76v-26.51h6.28v2.94c1.54-2.55 4.08-3.82 7.55-3.82 3.38 0 5.93 1.4 7.37 3.91 1.8-2.59 4.48-3.91 7.95-3.91 5.64.01 8.85 3.39 8.85 8.87zm54.25 18.53h-6.76v-36.87h6.76v36.87zm73.31 0h-6.76v-26.51h6.76v26.51zm-6.89-30.51h6.98v-6.45h-6.98v6.45zm32.22 21.47c-2.77 2.94-4.65 4.08-7.2 4.08-3.03 0-5.18-1.76-6.15-4.48v-7.73c1.01-2.77 3.16-4.52 6.23-4.52 2.24 0 4.04.79 6.89 3.47l4.21-4.17c-3.38-3.69-6.67-5.05-11.11-5.05-6.19 0-10.97 3.25-12.86 8.69v10.89c1.84 5.44 6.54 8.65 12.69 8.65 4.78 0 8.08-1.58 11.76-6.15l-4.46-3.68zm-234.8-7.29c-1.84-.4-3.16-.75-3.91-.92-.92-.26-1.62-.61-1.98-1.1v-2.02c.61-.97 2.11-1.58 4.17-1.58 2.85 0 4.83.66 7.95 3.12l3.64-4.39c-3.69-3.07-6.85-4.17-11.41-4.17-5.27 0-8.91 2.15-10.36 5.22v6.67c1.14 2.24 3.78 3.51 9.04 4.65 1.89.44 3.16.75 3.91.88.97.31 1.84.7 2.33 1.4v2.33c-.66 1.05-2.24 1.62-4.3 1.62-1.49.04-2.94-.26-4.3-.83-1.32-.53-2.85-1.54-4.78-3.12l-3.91 4.35c4.21 3.73 7.77 5 12.82 5 5.4 0 9.22-2.06 10.67-5.36v-6.72c-1.24-2.48-4.18-3.8-9.58-5.03zm99.64-11.11c-6.1 0-10.89 3.29-12.82 8.56v11.15c1.93 5.27 6.76 8.56 12.82 8.56 6.06 0 10.84-3.29 12.77-8.52v-11.24c-1.97-5.21-6.75-8.51-12.77-8.51zm6.24 18.05c-1.05 2.81-3.29 4.48-6.28 4.48-2.98 0-5.22-1.67-6.32-4.48v-7.81c1.05-2.81 3.29-4.52 6.32-4.52 3.03 0 5.18 1.71 6.23 4.52l.05 7.81zm48.37-18.05c-6.1 0-10.89 3.29-12.86 8.56v11.15c1.98 5.27 6.76 8.56 12.86 8.56s10.84-3.29 12.77-8.52v-11.24c-1.93-5.21-6.71-8.51-12.77-8.51zm6.23 18.05c-1.05 2.81-3.29 4.48-6.23 4.48-2.94 0-5.27-1.67-6.32-4.48v-7.81c1.05-2.81 3.29-4.52 6.32-4.52 3.03 0 5.18 1.71 6.23 4.52v7.81zm30.07-17.12v2.94c-1.71-2.55-4.39-3.82-8.08-3.82-5 0-9.04 3.07-10.8 7.95v10.93c1.71 4.87 5.75 7.9 10.8 7.9 3.38 0 5.93-1.14 7.73-3.38v2.11c0 4.39-2.55 6.45-6.5 6.45-2.94 0-5.36-.88-9.22-3.16l-3.29 4.87c3.73 2.5 8.12 3.86 12.6 3.91 7.46 0 12.95-3.99 12.95-11.46v-25.24h-6.19zm-.83 16.11c-1.01 2.5-3.12 4.08-5.75 4.08s-4.74-1.54-5.75-4.08v-7.24c1.01-2.5 3.07-4.04 5.75-4.04s4.74 1.54 5.75 4.04v7.24z"/>
  </g>
</svg>